<svg xmlns="http://www.w3.org/2000/svg" viewBox="0 0 1000 1000"><path d="M500 10C229.4 10 10 229.4 10 500c0 270.7 219.4 490 490 490s490-219.3 490-490c0-270.6-219.4-490-490-490zm0 918.8C263.3 928.8 71.3 736.9 71.3 500c0-236.8 192-428.8 428.8-428.8 236.7 0 428.8 192 428.8 428.8-.1 236.9-192.2 428.8-428.9 428.8z"/><path d="M829.5 442.7L562.8 176.2c-32.6-32.7-77.5-33.2-110.4 0L185.9 442.7c-19.9 19.9-19.8 52.1 0 72 19.8 19.8 43 19.8 62.8 0l190-199.1v507.3c0 28.1 33.1 50.8 61.3 50.8 28.1 0 61.3-22.7 61.3-50.8V315.6l197.7 199c19.9 19.9 51.4 19.8 71.3 0 19.6-19.8 19-52-.8-71.9z"/></svg>